<?xml version="1.0" encoding="utf-8"?>
<!-- Generator: Adobe Illustrator 19.2.1, SVG Export Plug-In . SVG Version: 6.00 Build 0)  -->
<svg version="1.1" xmlns="http://www.w3.org/2000/svg" xmlns:xlink="http://www.w3.org/1999/xlink" x="0px" y="0px"
	 viewBox="0 0 720 504" style="enable-background:new 0 0 720 504;" xml:space="preserve">
<style type="text/css">
	.st0{fill:none;stroke:#000000;stroke-miterlimit:10;}
	.st1{fill:#F15B2A;}
	.st2{opacity:0.2;clip-path:url(#SVGID_2_);fill:#FFFFFF;}
	.st3{opacity:0.22;clip-path:url(#SVGID_4_);fill:#FFFFFF;}
	.st4{opacity:0.19;clip-path:url(#SVGID_6_);fill:#FFFFFF;}
	.st5{fill:#FFFFFF;}
</style>
<g id="B_x2F_W_no_words">
</g>
<g id="Color_no_words">
</g>
<g id="B_x2F_W_words">
</g>
<g id="Color_words">
</g>
<g id="Color_blk_bg">
</g>
<g id="Color_no_words_x2F_circle">
</g>
<g id="Layer_7">
	<path class="st5" d="M620.9,96.9h-35.4l-28,44.1h63.5v307.6H114.2V141h358.7l29.3-44.1H114.3c-24.3,0-44.1,19.8-44.1,44.1v307.6
		c0,24.3,19.8,44.1,44.1,44.1h506.6c24.3,0,44.1-19.8,44.1-44.1V141C665,116.7,645.2,96.9,620.9,96.9z M159.5,480.3l-8.5-8.8
		l8.5-8.8l8.5,8.8L159.5,480.3z M181.5,480.3v-17.6h72.3l-0.8,17.6H181.5z"/>
	<path class="st5" d="M604,56.5l-156,245.4l-44.1,14.7c0,0-15.9,85.7-64.5,75C283.3,379.2,309,272.7,277,265.8
		c-59.5-12.8-76.2,149.4-121.4,125.8c-50-26.2,34.3-122.1,34.3-122.1s-62.1,111.1-22.8,106.7c22.6-2.5,44.7-151.9,117.6-152.7
		c47.1-0.5,22,129.5,72.3,131.5c36.6,1.5,37.1-42.3,37.1-42.3l1.8-43.9L538.8,53.4c0,0,24.4-43.4,55.9-36.6
		C623.8,23,604,56.5,604,56.5z"/>
</g>
</svg>
