<?xml version="1.0" encoding="utf-8"?>
<!-- Generator: Adobe Illustrator 19.2.1, SVG Export Plug-In . SVG Version: 6.00 Build 0)  -->
<svg version="1.1" xmlns="http://www.w3.org/2000/svg" xmlns:xlink="http://www.w3.org/1999/xlink" x="0px" y="0px"
	 viewBox="0 0 650 550" style="enable-background:new 0 0 650 550;" xml:space="preserve">
<style type="text/css">
	.st0{fill:#FFFFFF;}
	.st1{opacity:0.45;}
	.st2{opacity:0.39;clip-path:url(#SVGID_2_);fill:#FFFFFF;}
	.st3{opacity:0.77;}
	.st4{opacity:0.2;clip-path:url(#SVGID_4_);fill:#FFFFFF;}
	.st5{fill:#BE202E;}
	.st6{opacity:0.19;}
	.st7{clip-path:url(#SVGID_6_);fill:#FFFFFF;}
	.st8{opacity:0.23;}
	.st9{clip-path:url(#SVGID_8_);fill:#FFFFFF;}
	.st10{clip-path:url(#SVGID_10_);fill:#BE202E;}
	.st11{stroke:#000000;stroke-miterlimit:10;}
	.st12{fill:none;stroke:#000000;stroke-miterlimit:10;}
</style>
<g id="B_x2F_W_no_words_x2F_circle">
	<path class="st0" d="M573.8,244.4l-219.6,0.8c0,0,39.7-32.2,37.6-76.3c-2.2-47.5-62.7-64.6-66.9-89.4
		c-7.5-44.4,21.8-58.9,21.8-58.9s21.8-11.8-13.5-11.8c-17.9,0-28.4,12.3-28.4,12.3s-27.5,26.3-18.7,64.1
		c9.9,42.4,55.5,36.9,65.6,90.7c6.1,32.6-48.5,68.6-48.5,68.6h-227c-20.8,0-37.8,16.7-37.8,37.1v209.5c0,20.4,17,37.1,37.8,37.1
		h497.7c20.8,0,37.8-16.7,37.8-37.1V281.5C611.7,261.1,594.7,244.4,573.8,244.4z M482.5,298.7c37.6,0,37.5,57.2,0,57.2
		C445,356,445,298.7,482.5,298.7z M181.1,464.2h-45v-61.4H72.6v-40.6l63.5,0.1v-60h45v60H244v40.5h-62.9V464.2z M293.1,466.2h-43.5
		c-20.3,0-20.3-30.9,0-30.9h43.5C313.4,435.3,313.4,466.2,293.1,466.2z M391.2,466.2h-37.3c-20.3,0-20.3-30.9,0-30.9h37.3
		C411.5,435.3,411.5,466.2,391.2,466.2z M426.2,413.4c-37.6,0-37.5-57.2,0-57.2C463.8,356.1,463.7,413.4,426.2,413.4z M482.5,470.4
		c-37.6,0-37.5-57.2,0-57.2C520.1,413.2,520.1,470.4,482.5,470.4z M538.9,413.4c-37.6,0-37.5-57.2,0-57.2
		C576.5,356.1,576.4,413.4,538.9,413.4z"/>
</g>
<g id="B_x2F_W_no_words">
</g>
<g id="Color_no_words">
</g>
<g id="B_x2F_W_words">
</g>
<g id="Color_words">
</g>
<g id="Color_blk_bg">
</g>
<g id="Color_no_words_x2F_circle">
</g>
</svg>
