<?xml version="1.0" encoding="utf-8"?>
<!-- Generator: Adobe Illustrator 19.2.1, SVG Export Plug-In . SVG Version: 6.00 Build 0)  -->
<svg version="1.1" xmlns="http://www.w3.org/2000/svg" xmlns:xlink="http://www.w3.org/1999/xlink" x="0px" y="0px"
	 viewBox="0 0 700 400" style="enable-background:new 0 0 700 400;" xml:space="preserve">
<style type="text/css">
	.st0{fill:none;stroke:#000000;stroke-miterlimit:10;}
	.st1{fill:#FFFFFF;}
	.st2{fill:#662F90;}
	.st3{opacity:0.31;}
	.st4{clip-path:url(#SVGID_2_);fill:#FFFFFF;}
	.st5{clip-path:url(#SVGID_4_);fill:#FFFFFF;}
	.st6{clip-path:url(#SVGID_6_);fill:#662F90;}
	.st7{fill:#9E2063;}
</style>
<g id="B_x2F_W_no_words">
</g>
<g id="Color_no_words">
	<g id="B_x2F_W_no_words_x2F_circle">
		<path class="st1" d="M657.7,313.5l-79.3-36.3V71.9c0,0,0.6-9.6-4.3-14.9c-5.8-6.3-16.1-6.3-16.1-6.3H142.7c0,0-13-0.3-18,4.7
			c-7.2,7.2-6.5,16.5-6.5,16.5v205.2l-75.4,38.5c0,0-3.4,28.3,4.6,35.9c6.7,6.4,18.8,6.4,18.8,6.4h563.3c0,0,13.8,0.6,20.3-4.2
			C660,346.1,657.7,313.5,657.7,313.5z M142.7,273V71.9h415.2V273H142.7z"/>
	</g>
</g>
<g id="B_x2F_W_words">
</g>
<g id="COlor_words">
</g>
<g id="Color_words_blk_bg">
</g>
<g id="color_no_words_x2F_circle">
</g>
</svg>
