<svg id="Layer_1" data-name="Layer 1" xmlns="http://www.w3.org/2000/svg" viewBox="0 0 645.64 80.49"><defs><style>.cls-1{fill:#fff;}.cls-2{fill:#a50000;}</style></defs><title>Blogo_rgb_Hor</title><path class="cls-1" d="M87.92,339.35l18.58,7.49L125,339.36a23.61,23.61,0,0,0,15.07-22.11v-39A54,54,0,0,0,72.89,278v39.29A23.59,23.59,0,0,0,87.92,339.35Z" transform="translate(-72.89 -266.35)"/><path class="cls-2" d="M88.74,337.32l17.76,7.16,17.74-7.15a21.44,21.44,0,0,0,13.68-20.07V279.31a51.67,51.67,0,0,0-62.85-.21v38.16A21.43,21.43,0,0,0,88.74,337.32ZM106.37,272a48.06,48.06,0,0,1,28.07,9v36.23A18,18,0,0,1,123,334.09l-16.45,6.63L90,334.08a18,18,0,0,1-11.47-16.83V280.84A48.08,48.08,0,0,1,106.37,272Z" transform="translate(-72.89 -266.35)"/><path class="cls-2" d="M123.65,287.93l-6.23-6.23H89.08V288l2.85,2.45v29.67l-2.85,2.45V329h28.34l6.23-6.23v-14.4l-3-3,3-3v-14.4Zm-20.38,12.38v-8.55h8.93v8.55h-8.93Zm0,18.57v-8.52h8.93v8.52h-8.93Z" transform="translate(-72.89 -266.35)"/><path class="cls-1" d="M119.38,288.9l-3.53-3.49H93.18l3,2.65V322.6l-3,2.68h22.65l3.56-3.54V308l-2.7-2.7,2.7-2.7V288.9Zm-20.33-.84h17.43v16H99.05v-16Zm17.43,34.53H99.05V306.66h17.43v15.93Z" transform="translate(-72.89 -266.35)"/><path class="cls-2" d="M173.74,304.32c7.57-.14,11.73-3.82,11.73-10.43,0-7-4.64-11.74-13-11.74H150.88v3.63h5.18v39.55h-5.18v3.62H173.8c8.8,0,13.92-5.26,13.92-12.76S182.67,304.59,173.74,304.32Zm-9.14-18.54h4.71c4.29,0,7.09,4.09,7.09,8.86,0,4.56-3,8.36-7,8.36h-4.84V285.77Zm4.71,39.55h-4.71V306.57h5c5.45,0,9.07,3.61,9.07,9.14C178.65,321.44,175.51,325.32,169.3,325.32Z" transform="translate(-72.89 -266.35)"/><path class="cls-2" d="M309.93,282.14H288.65v3.63h5.18v39.55h-5.18v3.62h21.21c6.68,0,11.53-2.74,15.82-6.83a23,23,0,0,0,7.16-16.64C332.85,292.86,322.82,282.14,309.93,282.14Zm-1.77,43.18h-5.52V285.77h5.79c8,0,14.8,9.68,14.8,19.71C323.24,316.18,316.76,325.32,308.16,325.32Z" transform="translate(-72.89 -266.35)"/><polygon class="cls-2" points="293.76 58.97 279.24 58.97 279.24 19.43 284.35 19.43 284.35 15.79 265.26 15.79 265.26 19.43 270.44 19.43 270.44 58.97 265.26 58.97 265.26 62.6 297.45 62.6 297.45 52.63 293.76 52.63 293.76 58.97"/><polygon class="cls-2" points="333.38 58.97 318.57 58.97 318.57 40.84 329.49 40.84 329.49 45.61 333.17 45.54 333.17 32.11 329.49 32.17 329.49 36.81 318.57 36.81 318.57 19.43 332.76 19.43 332.76 25.62 336.38 25.62 336.38 15.79 304.6 15.79 304.6 19.43 309.78 19.43 309.78 58.97 304.6 58.97 304.6 62.6 337.06 62.6 337.06 52.63 333.38 52.63 333.38 58.97"/><polygon class="cls-2" points="370.03 15.79 370.03 19.43 375.9 19.43 366.75 34.49 356.97 19.43 362.11 19.43 362.11 15.79 343.02 15.79 343.02 19.43 347.24 19.43 360.82 40.02 360.82 58.84 355.7 58.84 355.7 62.6 374.8 62.6 374.8 58.84 369.62 58.84 369.62 38.24 381.09 19.43 385.92 19.43 385.92 15.79 370.03 15.79"/><path class="cls-2" d="M263.37,282.14H258.1L241,325.32h-6.12c-1.36-.13-2.19-0.82-3.75-3.21l-9.69-14.86c6.41-2,9.1-5.94,9.1-12.08,0,0,.75-13-14.94-13h-19.4v3.63h5.19v39.55h-5.19v3.62h18.74v-3.62h-5.11V308h2.83l11,16.92c2.32,3.62,3,4,7,4H251v-3.62h-5.53L250,313.87h16.37l4.44,11.45H266v3.62H284.4v-3.62h-4.6Zm-49.52,22.45h-4V285.77h4.3c4.84,0,7.64,3.94,7.64,9.4S218.56,304.59,213.85,304.59ZM251.58,310l6.89-17,6.48,17H251.58Z" transform="translate(-72.89 -266.35)"/><path class="cls-2" d="M509.86,292.7v22c0,6.19-2.19,10.18-7,12.79a17.46,17.46,0,0,1-8,2c-8.38,0-14.58-5.55-14.58-13.12V292.7h-4.34v-2.14h13.76v2.14h-4.33v21.86c0,7,4.1,11.57,10.53,11.57,6.59,0,11-4.69,11-11.63V292.7h-4.33v-2.14H514.2v2.14h-4.34Z" transform="translate(-72.89 -266.35)"/><path class="cls-2" d="M532.86,328.73v-2.14h4.34V309.64c0-3.06-1.56-5-4.1-5s-3.93,1.1-9,6.88v15h4.4v2.14H515.41v-2.14h4.39V305.77h-5v-1.56l8.32-2.25h1v6.48c4.34-5,6.82-6.59,10.53-6.59,4.28,0,6.94,2.77,6.94,7.22v17.52h4.34v2.14H532.86Z" transform="translate(-72.89 -266.35)"/><path class="cls-2" d="M549.36,328.73v-2.14h4.39V305.77h-5v-1.56L557,302h1v24.63h4.39v2.14H549.36Zm6.3-33.66a3,3,0,1,1,3.07-3.06A3,3,0,0,1,555.66,295.07Z" transform="translate(-72.89 -266.35)"/><path class="cls-2" d="M586,304.67l-9.43,24.81h-1.16l-10.12-24.75-2.43-.06v-2.14h11.22v2.14h-4l6.88,17.06,6.47-17.06h-3.87v-2.14h8.91v2.14H586Z" transform="translate(-72.89 -266.35)"/><path class="cls-2" d="M593.81,313.93v0.64c0,7.23,3.81,12.26,9.31,12.26,2.31,0,3.88-.57,7.11-2.66l1.1,2.14c-4.33,2.49-6.36,3.18-9.72,3.18-7.34,0-12.55-5.67-12.55-13.65s5.26-14,12.43-14c6.24,0,10.53,4.28,10.53,10.52v1.56H593.81Zm13.48-3.7a5.62,5.62,0,0,0-5.73-6c-4.22,0-7.17,2.83-7.69,7.34h13.42v-1.39Z" transform="translate(-72.89 -266.35)"/><path class="cls-2" d="M632.48,308c-1.15-1.09-2-1.62-2.54-1.62-1,0-2.08,1-5.26,4.86v15.38h5.55v2.14H615.94v-2.14h4.39V305.77h-5v-1.56l8.32-2.25h1v6.48c4.16-5.32,5.66-6.59,7.75-6.59a2.3,2.3,0,0,1,1.62.52l1.79,1.56Z" transform="translate(-72.89 -266.35)"/><path class="cls-2" d="M648.35,329.48c-3.24,0-5.66-.75-7.34-2.3v2.08h-2.31V321h2.66v1.57c0,2.48,3.24,4.68,6.82,4.68,3.18,0,5.55-1.68,5.55-4s-1.62-3.58-7.69-6c-5.55-2.14-7.52-4.28-7.52-7.92,0-4.5,3.64-7.57,9-7.57a9.24,9.24,0,0,1,6.13,2l0.34-2.08h2.49l-1.39,8.33h-2.48a6.07,6.07,0,0,0,.35-1.92c0-2.25-2.6-4.1-5.72-4.1s-5,1.62-5,4.1,0.4,2.77,7.4,5.61c5.66,2.25,7.46,4.17,7.46,7.86C657.09,326.25,653.5,329.48,648.35,329.48Z" transform="translate(-72.89 -266.35)"/><path class="cls-2" d="M661.58,328.73v-2.14H666V305.77h-5v-1.56l8.33-2.25h1v24.63h4.39v2.14H661.58Zm6.3-33.66a3,3,0,1,1,3.06-3.06A3,3,0,0,1,667.88,295.07Z" transform="translate(-72.89 -266.35)"/><path class="cls-2" d="M709.62,302.53v2.14h3.87L707,321.73l-7-17.06h4.11v-2.14H685V295h-4.16v7.57h-5v2.14h5v19c0,3.53,2,5.62,5.38,5.62,2.14,0,3.29-.53,6.36-3l-1-1.56c-2,1.16-2.72,1.39-3.93,1.39-1.91,0-2.66-.81-2.66-3V304.67h10.29l9.37,23a24.82,24.82,0,0,1-3.75,7.05c-1.79,2.31-2.89,3.18-6.07,5l3.76,3.87c1-1.38,1.79-2.43,2.32-3.12a54.82,54.82,0,0,0,5.37-10.36l9.77-25.38h2.43v-2.14h-8.9Z" transform="translate(-72.89 -266.35)"/></svg>